<?xml version="1.0" encoding="UTF-8" standalone="no"?>
<!-- Created with Inkscape (http://www.inkscape.org/) -->

<svg
   xmlns:dc="http://purl.org/dc/elements/1.1/"
   xmlns:cc="http://creativecommons.org/ns#"
   xmlns:rdf="http://www.w3.org/1999/02/22-rdf-syntax-ns#"
   xmlns:svg="http://www.w3.org/2000/svg"
   xmlns="http://www.w3.org/2000/svg"
   xmlns:sodipodi="http://sodipodi.sourceforge.net/DTD/sodipodi-0.dtd"
   xmlns:inkscape="http://www.inkscape.org/namespaces/inkscape"
   version="1.2"
   width="40mm"
   height="40mm"
   id="svg2985"
   inkscape:version="0.48.5 r10040"
   sodipodi:docname="myCaptain V5 CARD SVG.svg">
  <sodipodi:namedview
     pagecolor="#ffffff"
     bordercolor="#666666"
     borderopacity="1"
     objecttolerance="10"
     gridtolerance="10"
     guidetolerance="10"
     inkscape:pageopacity="0"
     inkscape:pageshadow="2"
     inkscape:window-width="1169"
     inkscape:window-height="480"
     id="namedview3042"
     showgrid="false"
     inkscape:zoom="1.2683226"
     inkscape:cx="142.40874"
     inkscape:cy="84.512179"
     inkscape:window-x="0"
     inkscape:window-y="0"
     inkscape:window-maximized="0"
     inkscape:current-layer="svg2985" />
  <defs
     id="defs3" />
  <metadata
     id="metadata2989">
    <rdf:RDF>
      <cc:Work
         rdf:about="">
        <dc:format>image/svg+xml</dc:format>
        <dc:type
           rdf:resource="http://purl.org/dc/dcmitype/StillImage" />
        <dc:title></dc:title>
      </cc:Work>
    </rdf:RDF>
  </metadata>
  <path
     inkscape:connector-curvature="0"
     style="fill:#ccc9c4;fill-opacity:1"
     id="path3818"
     d="m -0.0182204,96.461938 0,-83.148661 63.6234884,0 63.623482,0 0,83.148661 0,83.148662 -63.623482,0 -63.6234884,0 0,-83.148662 z" />
  <path
     inkscape:connector-curvature="0"
     style="fill:#ffffff;stroke-width:1;stroke-miterlimit:4;stroke-dasharray:none;fill-opacity:1"
     id="path3812"
     d="m -0.0182204,166.71446 c 0,-10.03034 0.0507783,-12.84534 0.2285867,-12.66756 0.3211854,0.32119 1.204635,0.28418 1.9238818,-0.0805 0.3352971,-0.17004 1.5587757,-0.89867 2.718849,-1.61916 1.1600648,-0.72049 2.2878323,-1.30998 2.5061537,-1.30998 1.0202811,0 4.0091572,1.29306 5.6243792,2.43324 2.300561,1.62397 2.713949,1.81771 3.54549,1.66171 1.033861,-0.19395 4.273736,-1.51988 6.231332,-2.55019 0.951267,-0.50066 3.565733,-2.10137 5.809923,-3.55711 4.508995,-2.92486 6.246195,-4.45417 7.143866,-6.28896 l 0.519212,-1.06122 -0.367088,-0.88577 c -0.46102,-1.11238 -1.977258,-2.37117 -4.302997,-3.57236 -0.921103,-0.47574 -1.674739,-0.93428 -1.674739,-1.01899 0,-0.35515 7.843484,-4.94217 9.957886,-5.82355 l 0.719146,-0.29978 0.361226,0.8427 c 0.687379,1.60359 2.427371,9.12257 3.254509,14.06364 0.518268,3.09596 1.218696,5.74996 1.693465,6.41671 0.976529,1.37141 2.922873,2.46051 6.549169,3.66467 2.422496,0.80442 4.488059,1.7814 4.648112,2.19849 0.05137,0.13382 -0.04352,1.23894 -0.210806,2.45582 -0.42194,3.06907 -0.399546,4.67394 0.07828,5.6106 0.210367,0.41236 1.303298,1.72327 2.428746,2.91316 1.125439,1.18987 3.460642,3.68729 5.189331,5.5498 1.728689,1.86251 3.723298,3.93412 4.432448,4.60359 l 1.289381,1.21723 -35.148882,0 -35.1488827,0 z m 73.7194294,12.53167 c 0,-0.21625 -1.637136,-2.05618 -4.025454,-4.52413 -5.099516,-5.26954 -8.254283,-8.74347 -9.165939,-10.0933 -0.639359,-0.94664 -0.714337,-1.18457 -0.714337,-2.26686 0,-1.53197 0.442294,-4.92234 1.035599,-7.93832 0.580677,-2.95178 1.059782,-6.6804 1.059782,-8.2477 0,-1.70931 -0.498927,-2.14859 -1.721992,-1.51612 -1.074155,0.55546 -1.305475,1.3479 -2.087756,7.15196 -0.120957,0.89743 -0.287024,1.74028 -0.369045,1.87299 -0.113087,0.18297 -1.064877,-0.0884 -3.937967,-1.12276 -4.43928,-1.59823 -4.838328,-1.87897 -5.413228,-3.8084 -0.475891,-1.59711 -2.701254,-11.43849 -3.23106,-14.2889 -0.223939,-1.20485 -0.75448,-3.24901 -1.178968,-4.54259 -0.551054,-1.67923 -0.741523,-2.53857 -0.66593,-3.00438 0.152285,-0.93845 3.013305,-4.91937 6.212742,-8.64464 0.531342,-0.61866 0.572977,-0.63528 0.577734,-0.23053 0.0025,0.23991 0.179757,0.77851 0.393212,1.1969 0.592942,1.16226 4.718442,6.1924 7.710786,9.4016 5.95799,6.38976 7.956335,8.93536 14.067292,17.91972 1.567759,2.30492 3.573964,5.17655 4.45823,6.3814 0.884267,1.20484 2.036211,2.91924 2.559877,3.80979 0.52367,0.89053 1.536726,2.48168 2.251236,3.53588 1.343981,1.98293 3.936528,6.72102 8.045302,14.70348 l 2.377706,4.61938 -9.11891,0 c -8.854224,0 -9.118912,-0.0105 -9.118912,-0.36447 z m 29.716361,0.21207 c 0,-0.0838 0.0737,-0.23382 0.1639,-0.33335 0.0901,-0.0995 0.26301,-1.03816 0.38414,-2.08587 0.18076,-1.56335 0.16887,-2.28058 -0.0663,-4.00026 -0.15762,-1.15247 -0.37437,-4.19555 -0.48164,-6.76239 -0.25214,-6.03299 -0.66017,-8.8414 -2.28324,-15.71539 -0.19791,-0.83815 -0.49668,-2.50969 -0.66394,-3.71454 -0.536725,-3.86649 -0.700559,-4.83686 -0.989624,-5.86133 -0.155785,-0.55211 -0.248409,-1.10834 -0.205838,-1.23606 0.122517,-0.36757 7.571392,10.91681 7.571392,11.46996 0,0.13479 -0.37502,-0.0623 -0.83337,-0.43781 -1.16412,-0.95391 -1.74384,-1.19846 -2.11358,-0.89161 -0.61398,0.50955 -0.32272,1.36545 1.52491,4.48118 1.52255,2.56754 3.47466,6.68649 3.71294,7.83431 0.25453,1.22605 0.0402,3.83063 -0.97762,11.88136 -0.31129,2.46207 -0.57571,4.71222 -0.58763,5.00034 l -0.0217,0.52386 -2.0664,0 c -1.13651,0 -2.06639,-0.0686 -2.06639,-0.1524 z m 6.94478,-0.2762 c 0.62972,-2.85833 1.72333,-11.57421 1.90763,-15.20338 l 0.11185,-2.20246 -1.06438,-2.26524 c -1.40028,-2.98013 -1.80484,-4.22948 -1.80131,-5.56278 0.004,-1.65299 0.14334,-1.74395 1.35281,-0.88553 0.56396,0.40028 1.87967,1.4389 2.92377,2.30804 2.0323,1.69175 4.11744,3.13603 6.33993,4.39138 1.23444,0.69727 1.46597,0.76531 2.18582,0.64242 1.23187,-0.21029 1.46093,-0.75728 1.01186,-2.41628 -0.56657,-2.09308 -1.79172,-3.69774 -5.21144,-6.82583 -1.64243,-1.50236 -3.80056,-3.48269 -4.79588,-4.40074 -2.04136,-1.88292 -5.86045,-4.68994 -6.83842,-5.02624 -0.35614,-0.12246 -0.937,-0.22266 -1.29081,-0.22266 -0.83422,0 -1.77122,-0.92307 -3.67391,-3.6193 -1.537455,-2.17866 -4.676633,-5.38699 -7.102925,-7.25939 -0.875951,-0.67598 -1.476299,-1.27918 -1.476299,-1.48332 0,-0.44667 0.828623,-1.99928 1.559552,-2.92215 0.851329,-1.07488 1.918281,-1.72847 5.16907,-3.16645 4.792332,-2.11987 7.206792,-3.64728 8.317622,-5.26182 1.53201,-2.2267 3.37224,-10.06158 4.56511,-19.436204 0.42567,-3.345261 0.51619,-4.731432 0.77101,-11.807582 0.11734,-3.258744 0.27449,-5.213287 0.49775,-6.190904 0.23403,-1.024836 0.33095,-2.344048 0.34286,-4.666995 0.0185,-3.609468 -0.0553,-3.903586 -1.36451,-5.433025 l -0.69,-0.80611 0.55933,-0.404489 c 2.50378,-1.810642 3.41079,-2.896201 3.25187,-3.89203 -0.13381,-0.838432 -1.81283,-3.328661 -3.74926,-5.560704 -2.53015,-2.916421 -2.56258,-2.983909 -2.56258,-5.333704 0,-1.512949 0.0774,-2.139344 0.31802,-2.571609 0.17491,-0.314311 1.22546,-1.642973 2.33457,-2.952589 1.1091,-1.309616 2.19575,-2.746676 2.41479,-3.193474 0.36176,-0.737922 0.37659,-0.903719 0.16188,-1.809648 -0.8367,-3.530365 -6.60149,-15.532306 -9.81163,-20.427224 -1.18665,-1.809428 -2.23387,-2.885203 -3.80525,-3.909002 -1.391731,-0.906746 -2.720604,-1.206642 -4.565653,-1.030344 -1.756499,0.167839 -3.213339,0.708122 -7.905313,2.931764 -2.14777,1.017877 -4.63366,2.139192 -5.524199,2.491806 -2.030468,0.803976 -10.082953,4.789735 -13.619999,6.741528 -5.670873,3.129267 -13.401313,8.640442 -20.863884,14.874254 -2.255451,1.884069 -4.741344,3.938254 -5.524198,4.564843 -0.782863,0.626597 -2.762998,2.46958 -4.400311,4.095523 -2.721422,2.702544 -3.177726,3.258718 -5.316606,6.480323 -2.998197,4.515912 -3.319307,5.199318 -3.159844,6.725038 0.06638,0.634695 0.239518,1.335444 0.384835,1.557232 0.145317,0.221788 1.280803,0.946838 2.523302,1.611232 3.196696,1.709356 3.658155,2.031807 4.192752,2.929756 0.260884,0.438212 0.801538,1.353765 1.201447,2.034565 l 0.727108,1.237827 -0.339582,0.857554 c -0.186766,0.471656 -0.870274,1.929058 -1.518904,3.238674 l -1.179313,2.381123 0.08005,2.381114 0.08005,2.381123 1.198393,2.857342 c 1.497403,3.570271 2.361495,5.297771 3.937798,7.872399 2.296436,3.750857 3.714635,5.538467 6.69409,8.437787 2.722906,2.64966 2.873605,2.83537 3.091597,3.80979 0.360923,1.61337 0.255385,1.87418 -1.048167,2.59017 -0.66113,0.36313 -1.711001,1.22051 -2.490473,2.03386 -1.447308,1.51018 -5.548339,6.8809 -7.414981,9.71067 -1.263073,1.91478 -1.505315,2.11678 -5.143218,4.28891 -1.361997,0.81322 -3.83706,2.32449 -5.500133,3.35837 l -3.023772,1.87978 -1.562108,-0.0489 c -2.082534,-0.0652 -2.91863,0.27218 -5.795448,2.33857 -1.266303,0.90958 -3.31137,2.27922 -4.544582,3.04366 -1.233213,0.76443 -2.927968,1.81761 -3.766122,2.34039 -0.838154,0.52279 -2.0382429,1.2254 -2.666856,1.56136 -1.9667313,1.0511 -3.3335616,2.58534 -3.3335616,3.74186 0,0.71165 -0.6617796,1.39456 -3.1430756,3.24343 -0.838154,0.62453 -1.55249166,1.19979 -1.58741229,1.27837 -0.0349206,0.0786 -0.14207802,0.14287 -0.23811817,0.14287 -0.10550415,0 -0.17461156,-27.51708 -0.17461156,-69.528656 l 0,-82.88144209 63.62348822,0 255.342235,0 -0.0521,96.50143909 0,83.252839 -200.14708,-0.10417 -8.48041,0 z M 87.606942,130.45388 c -0.945336,-0.81056 -1.456089,-1.05815 -3.966639,-1.9229 -3.643477,-1.25499 -7.677192,-3.06955 -19.018136,-8.5553 -2.961438,-1.43248 -7.365047,-4.56137 -9.037129,-6.42112 -1.039479,-1.15616 -1.252528,-1.7959 -1.537072,-4.61557 l -0.221063,-2.19062 1.41275,-2.76211 1.41275,-2.76209 1.264194,0.0628 c 1.113724,0.0554 1.312113,0.0115 1.666785,-0.36928 0.449194,-0.48215 0.54989,-1.660691 0.173996,-2.036586 -0.127857,-0.127856 -0.740967,-0.228586 -1.391376,-0.228586 -1.495666,0 -2.310101,-0.500259 -4.889959,-3.003646 -1.625066,-1.576894 -2.017661,-2.08283 -2.683127,-3.457674 -1.012926,-2.092698 -1.174682,-3.860559 -0.515577,-5.634763 0.547866,-1.474789 1.839465,-2.775802 3.206473,-3.229846 1.737208,-0.577008 2.497778,-0.145283 4.690042,2.662234 1.407942,1.803068 2.055349,2.377268 2.680386,2.377268 1.145734,0 2.49604,-2.190966 3.386069,-5.494128 0.263727,-0.978772 0.528246,-1.828322 0.587822,-1.887898 0.169416,-0.169424 13.320462,-2.338594 13.587694,-2.241196 0.130963,0.04774 0.238113,0.203282 0.238113,0.345656 0,0.486417 0.988007,2.703792 1.875606,4.209394 1.207299,2.047901 2.265087,3.176756 3.975951,4.243092 2.226551,1.387749 4.274915,2.15144 5.780939,2.155303 2.794097,0.0067 4.567086,-0.638946 6.221075,-2.267057 1.715329,-1.68848 2.390697,-2.864242 3.510381,-6.111278 0.41746,-1.210658 0.59848,-2.183847 0.71744,-3.857351 0.16564,-2.329982 0.3078,-2.713113 1.12143,-3.022456 0.59521,-0.226301 1.87716,0.116976 2.1181,0.567173 0.10054,0.187863 0.24353,0.806422 0.31776,1.374582 0.24199,1.852177 1.74094,5.317421 2.87148,6.638197 0.67662,0.79048 2.33004,1.728664 3.04654,1.728664 0.23766,0 0.51496,0.154797 0.61622,0.343985 0.11742,0.219392 0.12244,1.961594 0.0138,4.80986 -0.20747,5.442616 -0.30775,6.705089 -0.75577,9.513842 -0.19218,1.204845 -0.49379,3.090695 -0.67024,4.190765 -0.44554,2.77773 -2.06157,9.21058 -2.78528,11.08724 -0.99837,2.58885 -2.24353,3.52725 -7.688362,5.79424 -2.23761,0.93165 -4.767171,2.38912 -5.680396,3.2729 -0.769932,0.74512 -1.667215,2.13174 -3.444894,5.32359 -0.598096,1.07389 -1.189748,1.95021 -1.314779,1.94739 -0.125039,-0.003 -0.52736,-0.26237 -0.894052,-0.57677 z M 67.383115,112.2064 c 0.06933,-0.48961 -0.259535,-0.81977 -2.911647,-2.92313 -0.833202,-0.66081 -1.678231,-1.4824 -1.877835,-1.82576 -0.199604,-0.34336 -0.475604,-1.372 -0.613329,-2.28587 -0.321844,-2.13555 -0.346339,-2.18842 -1.249189,-2.69585 -0.728694,-0.40955 -0.782239,-0.41393 -1.256931,-0.1029 -0.494929,0.32429 -0.495595,0.32829 -0.374377,2.25492 0.155515,2.4717 0.372394,3.21066 1.216503,4.14499 0.900075,0.99627 3.515107,2.95083 4.717633,3.5261 1.2321,0.58942 2.258353,0.54901 2.349172,-0.0925 z M 50.349821,105.54739 C 46.485095,102.46301 41.955409,95.275573 39.766392,88.754256 38.36152,84.568969 38.366252,84.530159 40.905116,79.413132 l 2.032043,-4.095528 1.276653,-0.957339 c 2.209007,-1.65652 13.305534,-7.90042 14.040452,-7.90042 0.241341,0 0.398281,0.122492 0.398281,0.310869 0,0.625045 1.28987,1.547001 3.040423,2.173193 0.944349,0.337802 1.825235,0.74499 1.95752,0.904858 0.41661,0.503472 0.231311,3.309302 -0.424058,6.421295 -0.330961,1.571538 -0.639267,3.344414 -0.685127,3.939735 -0.09242,1.199701 -0.686874,3.292627 -1.249096,4.397806 -0.460438,0.905093 -0.592892,0.842371 -2.347223,-1.11132 -1.68061,-1.871602 -3.278119,-2.940215 -4.395444,-2.940215 -1.262912,0 -3.635279,1.279124 -4.865573,2.623391 -1.599044,1.747195 -1.790568,2.331913 -1.792465,5.472416 -0.0017,2.624614 0.0084,2.687926 0.628461,3.997517 0.79463,1.678198 1.740954,2.93173 3.978193,5.269641 0.975213,1.019117 1.773124,1.973384 1.773124,2.120609 0,0.83185 -1.957545,5.19625 -2.650914,5.91028 -0.321851,0.33145 -0.36999,0.31619 -1.270545,-0.40253 z M 65.229457,78.127331 c 0.04994,-0.28812 0.265194,-1.852514 0.478395,-3.476432 0.612756,-4.667116 0.462648,-4.251983 1.494384,-4.132662 0.483743,0.05592 2.036758,0.277737 3.451145,0.492878 1.414386,0.215142 3.936777,0.526315 5.605318,0.691513 1.668544,0.16519 3.106898,0.345571 3.196346,0.400853 0.08945,0.05525 -0.09707,0.453656 -0.414482,0.885264 -0.507868,0.690593 -0.577115,0.9389 -0.577115,2.069418 0,0.70656 -0.08852,1.339366 -0.196719,1.406238 -0.206039,0.127334 -12.228565,2.178554 -12.799424,2.183767 -0.253908,0.0025 -0.307968,-0.116061 -0.237848,-0.520837 z M 40.796879,73.083646 c -0.106651,-0.133323 -0.684292,-1.165354 -1.283637,-2.293399 -1.352617,-2.54579 -1.780563,-2.856389 -2.647472,-1.92147 l -0.467363,0.50403 -0.92139,-0.529765 c -1.713236,-0.98504 -2.159579,-1.40213 -2.159579,-2.018032 0,-0.793129 0.394046,-1.653517 1.541408,-3.365606 3.042,-4.539268 6.914883,-8.743475 11.221389,-12.181369 1.309616,-1.045467 3.152598,-2.578989 4.095522,-3.407839 1.866651,-1.640814 8.66983,-7.046991 10.722319,-8.520548 2.221551,-1.594928 9.955305,-6.500061 12.136419,-7.697535 3.446428,-1.892141 6.494511,-3.365665 11.181055,-5.405224 2.441501,-1.062523 5.6087,-2.517448 7.038227,-3.233177 4.239094,-2.12239 5.849601,-2.491629 7.405526,-1.697842 1.031879,0.526415 4.006587,3.579532 5.142847,5.278378 1.30523,1.95149 4.47615,8.31245 6.06715,12.170909 2.22449,5.394765 2.24903,5.998292 0.32644,8.027619 l -1.19528,1.26163 -0.26746,-0.842236 c -0.19719,-0.620955 -0.40211,-0.889262 -0.77993,-1.021235 -1.05505,-0.368522 -1.10669,-0.149576 -1.10669,4.692227 l 0,4.378051 -0.47623,0.565959 c -0.77694,0.923347 -0.64228,1.322901 1.00007,2.967393 2.46407,2.467277 5.30955,6.128721 5.12885,6.599602 -0.16288,0.424479 -5.03801,3.307194 -6.63359,3.922522 -2.35416,0.907852 -4.23177,1.14344 -9.113307,1.14344 -2.381291,0 -5.606,-0.122889 -7.166024,-0.273073 C 88.026125,70.036864 85.9354,69.858271 84.940095,69.790192 82.960175,69.654753 72.867432,68.61955 71.796314,68.442045 71.429622,68.381315 69.4152,67.993805 67.31981,67.580999 c -4.060307,-0.799918 -5.952279,-1.270124 -6.105019,-1.517276 -0.178373,-0.288618 1.045426,-1.449493 2.145653,-2.035332 1.767532,-0.941162 8.368973,-3.746013 10.340765,-4.393631 2.457451,-0.80713 7.431377,-2.01104 10.304393,-2.494117 2.470553,-0.415403 6.787189,-0.769097 9.44529,-0.773913 1.645698,-0.0034 2.15661,-0.228823 2.15661,-0.9533 0,-1.337198 -0.691732,-1.567742 -4.647159,-1.548839 -4.866737,0.02328 -7.555946,0.345495 -13.036367,1.562124 -3.250523,0.721609 -10.206391,3.336868 -14.080935,5.294144 -0.654998,0.330877 -1.640781,0.778688 -2.190629,0.995137 -1.229357,0.483929 -5.984931,3.015472 -12.048121,6.413594 -3.90707,2.189717 -5.31896,3.037791 -8.199152,4.924972 -0.333391,0.21844 -0.452231,0.224133 -0.60826,0.0291 z" />
  <path
     inkscape:connector-curvature="0"
     style="fill:#ffffff;fill-opacity:1"
     id="path3816"
     d="m 120.58209,157.74257 c -0.26289,-0.49122 -0.7468,-2.8268 -0.49124,-2.8268 0.10476,0 0.66126,1.4771 0.66126,1.50399 0,0.0269 0.29043,0.40102 0.38386,0.72679 0.21551,0.75143 -0.24835,1.1669 -0.55388,0.59602 z m -2.49013,-1.93064 c -0.24204,-0.45225 -0.81629,-2.9924 -0.58303,-3.13656 0.21416,-0.13235 1.23366,1.71996 1.40123,2.83745 0.14006,0.934 -0.45,0.9871 -0.8182,0.29911 z m -3.62019,-2.9045 c -0.45146,-0.74047 -1.03811,-4.06461 -0.61946,-3.93794 0.36286,0.1098 1.83336,3.30081 1.9009,4.15285 0.0807,1.01821 -0.7347,0.68186 -1.28144,-0.21491 z m -98.212104,-1.1215 c -0.930685,-0.95808 -2.619924,-2.10318 -4.15919,-2.81944 -0.641055,-0.2983 -1.87274,-0.86801 -2.7370938,-1.26602 -0.8643441,-0.39802 -1.5715374,-0.83288 -1.5715374,-0.96638 0,-0.43062 1.1632445,-1.0885 2.0804929,-1.17664 0.7889443,-0.0758 1.1127953,0.0311 2.8806223,0.9514 4.716064,2.45497 6.658748,3.87114 6.658748,4.85408 0,0.54581 -0.988119,1.19643 -1.818614,1.19745 -0.428992,5e-4 -0.7769,-0.20154 -1.333428,-0.77445 z m 95.142284,-1.01927 c -0.069,-0.11167 -0.79772,-1.40431 -1.04395,-2.34947 -0.37004,-1.42038 -0.61388,-2.66002 -0.38603,-2.66002 0.34733,0 1.75837,2.23632 2.02786,3.69783 0.19483,1.05654 -0.29046,1.80907 -0.59788,1.31166 z m -89.920807,-1.20678 c -0.276185,-0.1828 -0.961954,-0.68971 -1.523914,-1.12646 -0.561961,-0.43676 -2.259348,-1.55653 -3.771976,-2.48839 -1.512628,-0.93186 -2.783503,-1.79409 -2.824168,-1.91608 -0.04066,-0.12199 0.168303,-0.44667 0.46436,-0.72152 0.458903,-0.426 0.667769,-0.48733 1.4162,-0.41581 1.393013,0.13313 5.146339,2.09514 8.22261,4.2983 1.352187,0.96841 1.440728,1.24942 0.644496,2.04564 -0.523776,0.52379 -0.808859,0.65847 -1.392051,0.65768 -0.403358,-5.2e-4 -0.959364,-0.15057 -1.235557,-0.33336 z m 2.770133,-4.2516 c -1.456915,-0.95074 -3.613298,-2.19945 -4.791945,-2.7749 -1.178655,-0.57546 -2.143004,-1.11131 -2.143004,-1.19077 0,-0.19511 0.759734,-0.87505 1.273278,-1.13954 0.783521,-0.40354 1.573849,-0.21294 4.291956,1.03507 4.247065,1.95002 6.761038,3.69862 6.596312,4.58805 -0.07279,0.39319 -1.539097,1.2107 -2.171506,1.2107 -0.223382,0 -1.598175,-0.77788 -3.055091,-1.72861 z m 7.207415,-1.89717 c -0.236541,-0.0951 -1.202139,-0.7272 -2.145772,-1.40478 -1.936576,-1.39056 -3.887171,-2.50222 -5.710441,-3.25444 -1.689315,-0.69696 -1.899058,-0.91922 -1.261579,-1.33691 0.601107,-0.39386 0.822895,-0.34723 3.711202,0.78028 5.447136,2.12638 7.769063,3.92944 6.585017,5.11348 -0.334934,0.33494 -0.552623,0.35385 -1.178427,0.10237 z" />
  <path
     inkscape:connector-curvature="0"
     style="fill:#ffffff;fill-opacity:1"
     id="path3814"
     d="m 94.274074,179.16248 c 0,-0.24646 -1.01689,-2.45376 -2.259752,-4.90512 -1.242871,-2.45133 -2.717179,-5.48561 -3.276247,-6.74286 -0.559067,-1.25722 -1.241251,-2.62874 -1.51596,-3.04782 -0.274717,-0.41908 -1.118126,-1.80027 -1.874259,-3.06932 l -1.374773,-2.30736 0.486166,-3.63701 c 0.267391,-2.00036 0.655305,-4.17656 0.862029,-4.83599 0.206715,-0.65945 0.376957,-1.3892 0.378315,-1.6217 0.0017,-0.23249 -0.418491,-1.06753 -0.932971,-1.85564 -1.122299,-1.71919 -1.295298,-2.51781 -0.888981,-4.10382 0.393213,-1.53487 2.064153,-6.0131 2.896073,-7.76168 0.632055,-1.32849 0.68258,-1.38104 1.327743,-1.38104 1.208794,0 3.403842,0.41305 3.728907,0.70169 0.404025,0.35875 1.315504,2.64968 2.032381,5.10823 0.844319,2.89565 0.877907,3.29207 0.426487,5.03356 -0.217875,0.84053 -0.39613,1.9971 -0.39613,2.57015 0,0.95279 0.09881,1.19355 1.155198,2.81477 0.63537,0.97507 1.595425,2.67292 2.133456,3.773 0.538039,1.10007 1.222888,2.40285 1.521881,2.89504 0.799682,1.31639 1.834973,3.79662 2.043283,4.89504 0.10008,0.52769 0.26931,2.48389 0.37608,4.34712 0.10677,1.86322 0.29093,4.47287 0.40925,5.79924 0.20413,2.28831 0.11966,4.11886 -0.326,7.0653 l -0.10804,0.71434 -3.41207,0 -3.412066,0 z m 11.307156,-6.22326 c -84.957819,1.0018 -42.478912,0.5009 0,0 z" />
  <flowRoot
     style="font-size:20px;font-style:normal;font-weight:normal;line-height:125%;letter-spacing:0px;word-spacing:0px;fill:#000000;fill-opacity:1;stroke:none;font-family:Bitstream Vera Sans"
     xml:space="preserve"
     id="flowRoot3037"><flowRegion
       id="flowRegion3039"><rect
         style="font-size:20px"
         id="rect3041"
         y="131.33203"
         x="165.83333"
         height="43.333332"
         width="151.66667" /></flowRegion><flowPara
       id="flowPara3043" /></flowRoot>  <text
     sodipodi:linespacing="125%"
     style="font-size:40px;font-style:normal;font-weight:normal;line-height:125%;letter-spacing:0px;word-spacing:0px;fill:#cbc8c5;fill-opacity:1;stroke:none;font-family:Bitstream Vera Sans"
     xml:space="preserve"
     id="text3045"
     y="160.4987"
     x="184.16666"><tspan
       style="font-size:20px;font-style:normal;font-variant:normal;font-weight:normal;font-stretch:normal;fill:#cbc8c5;fill-opacity:1;font-family:Arial;-inkscape-font-specification:Arial"
       id="tspan3047"
       y="160.4987"
       x="184.16666"></tspan></text>
</svg>
